<svg xmlns="http://www.w3.org/2000/svg" version="1.1" xmlns:xlink="http://www.w3.org/1999/xlink"
	xmlns:svgjs="http://svgjs.dev/svgjs" width="128" height="128" viewBox="0 0 128 128">
	<style>
		circle {
			fill: yellow;
			stroke: black;
			stroke-width: 3px;
		}

		@media (prefers-color-scheme: dark) {
			circle {
				fill: black;
				stroke: yellow;
			}
		}
	</style>
	<g transform="matrix(0.8046875,0,0,0.8046875,12.333870967741937,12.333870967741937)">
		<svg viewBox="0 0 155 155" data-background-color="#f8f8f8" preserveAspectRatio="xMidYMid meet" height="128"
			width="128" xmlns="http://www.w3.org/2000/svg" xmlns:xlink="http://www.w3.org/1999/xlink">
			<g id="tight-bounds" transform="matrix(1,0,0,1,0.25,0.25)"><svg viewBox="0 0 154.5 154.5" height="154.5"
					width="154.5">
					<g><svg></svg></g>
					<g><svg viewBox="0 0 154.5 154.5" height="154.5" width="154.5">
							<g transform="matrix(1,0,0,1,55.94238719346049,43.83165)"><svg viewBox="0 0 42.61522561307901 66.8367"
									height="66.8367" width="42.61522561307901">
									<g><svg viewBox="0 0 42.61522561307901 66.8367" height="66.8367" width="42.61522561307901">
											<g><svg viewBox="0 0 42.61522561307901 66.8367" height="66.8367" width="42.61522561307901">
													<g id="textblocktransform">
														<svg viewBox="0 0 42.61522561307901 66.8367" height="66.8367" width="42.61522561307901"
															id="textblock">
															<g><svg viewBox="0 0 42.61522561307901 66.8367" height="66.8367"
																	width="42.61522561307901">
																	<g transform="matrix(1,0,0,1,0,0)">
																		<svg width="42.61522561307901" viewBox="2.85 -36 23.4 36.7" height="66.8367"
																			data-palette-color="#61777f">
																			<path
																				d="M13.7-36L13.7-36Q16.5-36 18-35.4 19.5-34.8 20.6-34.1L20.6-34.1Q21.2-33.75 21.58-33.58 21.95-33.4 22.3-33.4L22.3-33.4Q23.1-33.4 23.4-35.6L23.4-35.6 24.55-35.6Q24.5-34.65 24.43-33.4 24.35-32.15 24.33-30.08 24.3-28 24.3-24.6L24.3-24.6 23.15-24.6Q23-27.15 22.03-29.5 21.05-31.85 19.28-33.38 17.5-34.9 14.75-34.9L14.75-34.9Q12.3-34.9 10.68-33.45 9.05-32 9.05-29.55L9.05-29.55Q9.05-27.45 10.1-26.03 11.15-24.6 13.08-23.28 15-21.95 17.65-20.25L17.65-20.25Q20.1-18.65 22.05-17.07 24-15.5 25.13-13.6 26.25-11.7 26.25-8.95L26.25-8.95Q26.25-5.7 24.65-3.55 23.05-1.4 20.35-0.35 17.65 0.7 14.45 0.7L14.45 0.7Q11.5 0.7 9.78 0.1 8.05-0.5 6.8-1.15L6.8-1.15Q5.7-1.85 5.1-1.85L5.1-1.85Q4.3-1.85 4 0.35L4 0.35 2.85 0.35Q2.95-0.8 2.98-2.35 3-3.9 3.03-6.38 3.05-8.85 3.05-12.65L3.05-12.65 4.2-12.65Q4.4-9.45 5.33-6.68 6.25-3.9 8.18-2.2 10.1-0.5 13.3-0.5L13.3-0.5Q15.9-0.5 17.75-1.98 19.6-3.45 19.6-6.45L19.6-6.45Q19.6-9.5 17.5-11.55 15.4-13.6 12-15.7L12-15.7Q9.65-17.2 7.6-18.75 5.55-20.3 4.33-22.28 3.1-24.25 3.1-27.05L3.1-27.05Q3.1-30.15 4.6-32.13 6.1-34.1 8.53-35.05 10.95-36 13.7-36Z"
																				opacity="1" transform="matrix(1,0,0,1,0,0)" fill="#000000"
																				class="undefined-text-0" data-fill-palette-color="primary" id="text-0">
																			</path>
																		</svg>
																	</g>
																</svg>
															</g>
														</svg>
													</g>
												</svg></g>
										</svg></g>
								</svg></g>
							<g>
								<path d="M0 154.5v-154.5h154.5v154.5zM148.473 148.473v-142.446h-142.446v142.446z" fill="#000000"
									fill-rule="nonzero" stroke="none" stroke-width="1" stroke-linecap="butt" stroke-linejoin="miter"
									stroke-miterlimit="10" stroke-dasharray="" stroke-dashoffset="0" font-family="none" font-weight="none"
									font-size="none" text-anchor="none" style="mix-blend-mode: normal" data-fill-palette-color="tertiary">
								</path>
							</g>
						</svg></g>
					<defs></defs>
				</svg>
				<rect width="154.5" height="154.5" fill="none" stroke="none" visibility="hidden"></rect>
			</g>
		</svg>
	</g>
</svg>