<svg xmlns="http://www.w3.org/2000/svg" version="1.1" xmlns:xlink="http://www.w3.org/1999/xlink"
    xmlns:svgjs="http://svgjs.dev/svgjs" width="1000" height="645" viewBox="0 0 1000 645">
    <g transform="matrix(1,0,0,1,0.10666666666668334,-0.6436407024792743)"><svg viewBox="0 0 375 242"
            data-background-color="#f8f8f8" preserveAspectRatio="xMidYMid meet" height="645" width="1000"
            xmlns="http://www.w3.org/2000/svg" xmlns:xlink="http://www.w3.org/1999/xlink">
            <g id="tight-bounds" transform="matrix(1,0,0,1,-0.03976000000000113,0.24188999999998373)"><svg
                    viewBox="0 0 375.07953 241.51662000000005" height="241.51662000000005" width="375.07953">
                    <g><svg></svg></g>
                    <g><svg viewBox="0 0 375.07953 241.51662000000005" height="241.51662000000005" width="375.07953">
                            <g transform="matrix(1,0,0,1,-10.22024,-5.683400000000006)">
                                <path
                                    d="M10.22 241.517v-235.834h375.08v235.834h-9.066l0-6.756h2.31v-222.322h-361.568v222.322l11.548 0 0 6.756z"
                                    fill="#61777f" fill-rule="nonzero" stroke="none" stroke-width="1"
                                    stroke-linecap="butt" stroke-linejoin="miter" stroke-miterlimit="10"
                                    stroke-dasharray="" stroke-dashoffset="0" font-family="none" font-weight="none"
                                    font-size="none" text-anchor="none" style="mix-blend-mode: normal"
                                    data-fill-palette-color="tertiary"></path>
                                <g>
                                    <path
                                        d="M56.006 222.793v0c1.241 0 2.195 0.133 2.859 0.399 0.665 0.266 1.241 0.554 1.729 0.865v0c0.266 0.155 0.483 0.27 0.652 0.346 0.164 0.08 0.324 0.12 0.479 0.119v0c0.355 0 0.599-0.488 0.731-1.463v0h0.765c-0.022 0.421-0.049 0.909-0.08 1.463-0.035 0.554-0.058 1.29-0.066 2.208-0.013 0.922-0.02 2.137-0.02 3.645v0h-0.765c-0.067-1.131-0.315-2.217-0.745-3.259-0.434-1.042-1.044-1.902-1.829-2.58-0.789-0.674-1.793-1.011-3.012-1.011v0c-1.086 0-1.988 0.321-2.707 0.964-0.723 0.643-1.084 1.507-1.084 2.594v0c0 0.931 0.233 1.711 0.698 2.341 0.466 0.634 1.126 1.244 1.982 1.829 0.851 0.59 1.864 1.261 3.039 2.015v0c1.086 0.709 2.062 1.414 2.927 2.114 0.865 0.696 1.547 1.465 2.048 2.308 0.497 0.842 0.745 1.873 0.745 3.092v0c0 1.441-0.355 2.638-1.064 3.592-0.709 0.953-1.663 1.663-2.86 2.128-1.197 0.466-2.505 0.698-3.924 0.698v0c-1.308 0-2.343-0.133-3.105-0.399-0.767-0.266-1.428-0.543-1.982-0.831v0c-0.488-0.31-0.865-0.466-1.131-0.466v0c-0.355 0-0.599 0.488-0.731 1.463v0h-0.765c0.044-0.51 0.073-1.108 0.086-1.795 0.009-0.687 0.02-1.581 0.034-2.68 0.009-1.095 0.013-2.485 0.013-4.17v0h0.765c0.089 1.419 0.339 2.742 0.751 3.97 0.408 1.233 1.04 2.226 1.896 2.979 0.851 0.754 1.986 1.131 3.405 1.131v0c1.153 0 2.139-0.328 2.959-0.984 0.82-0.652 1.23-1.643 1.23-2.973v0c0-1.352-0.466-2.483-1.396-3.392-0.931-0.909-2.15-1.829-3.658-2.76v0c-1.042-0.665-2.017-1.341-2.926-2.028-0.909-0.687-1.634-1.47-2.175-2.347-0.545-0.873-0.818-1.931-0.818-3.173v0c0-1.374 0.333-2.501 0.998-3.378 0.665-0.873 1.536-1.521 2.613-1.942 1.073-0.421 2.219-0.632 3.439-0.632zM72.764 220.698v0 11.772c0.554-1.241 1.326-2.117 2.315-2.627 0.984-0.51 2.053-0.765 3.205-0.765v0c0.909 0 1.651 0.122 2.228 0.366 0.576 0.244 1.042 0.554 1.397 0.931v0c0.377 0.421 0.65 0.964 0.818 1.629 0.164 0.665 0.246 1.563 0.246 2.693v0 8.945c0 0.931 0.173 1.563 0.518 1.895 0.341 0.333 0.922 0.499 1.743 0.499v0 0.698c-0.399-0.022-1.009-0.051-1.829-0.086-0.82-0.031-1.629-0.047-2.427-0.047v0c-0.798 0-1.585 0.016-2.361 0.047-0.776 0.035-1.363 0.064-1.763 0.086v0-0.698c0.709 0 1.208-0.166 1.497-0.499 0.288-0.333 0.432-0.964 0.432-1.895v0-10.075c0-0.599-0.055-1.137-0.166-1.616-0.111-0.474-0.326-0.851-0.645-1.131-0.324-0.275-0.807-0.412-1.45-0.412v0c-1.064 0-1.955 0.426-2.674 1.277-0.723 0.856-1.084 1.96-1.084 3.312v0 8.645c0 0.931 0.151 1.563 0.453 1.895 0.297 0.333 0.789 0.499 1.476 0.499v0 0.698c-0.377-0.022-0.935-0.051-1.676-0.086-0.745-0.031-1.516-0.047-2.314-0.047v0c-0.798 0-1.623 0.016-2.474 0.047-0.856 0.035-1.494 0.064-1.915 0.086v0-0.698c0.82 0 1.403-0.166 1.749-0.499 0.341-0.333 0.512-0.964 0.512-1.895v0-18.953c0-0.998-0.16-1.736-0.479-2.215-0.324-0.474-0.918-0.712-1.782-0.711v0-0.699c0.709 0.067 1.397 0.1 2.061 0.1v0c0.842 0 1.629-0.04 2.361-0.12 0.732-0.075 1.408-0.191 2.028-0.345zM97.603 229.078v0c0.687 0 1.259 0.144 1.716 0.432 0.452 0.288 0.789 0.654 1.011 1.097 0.222 0.443 0.333 0.909 0.332 1.397v0c0 0.732-0.215 1.341-0.645 1.829-0.434 0.488-1.006 0.732-1.715 0.731v0c-0.665 0-1.208-0.177-1.63-0.532-0.421-0.355-0.632-0.842-0.632-1.463v0c0-0.554 0.14-1.02 0.419-1.396 0.275-0.377 0.59-0.676 0.945-0.898v0c-0.244-0.133-0.521-0.177-0.831-0.133v0c-0.709 0.067-1.33 0.37-1.863 0.911-0.532 0.545-0.947 1.188-1.243 1.929-0.301 0.745-0.452 1.45-0.452 2.114v0 8.214c0 1.086 0.277 1.811 0.831 2.174 0.554 0.368 1.363 0.552 2.427 0.552v0 0.698c-0.51-0.022-1.246-0.051-2.208-0.086-0.967-0.031-1.971-0.047-3.012-0.047v0c-0.865 0-1.722 0.016-2.574 0.047-0.856 0.035-1.494 0.064-1.915 0.086v0-0.698c0.82 0 1.403-0.166 1.749-0.499 0.341-0.333 0.512-0.964 0.512-1.895v0-10.474c0-0.998-0.16-1.736-0.479-2.215-0.324-0.474-0.918-0.712-1.782-0.711v0-0.699c0.709 0.067 1.397 0.1 2.061 0.1v0c0.82 0 1.603-0.04 2.348-0.12 0.74-0.075 1.421-0.191 2.042-0.345v0 3.458c0.266-0.621 0.616-1.197 1.05-1.729 0.43-0.532 0.951-0.971 1.563-1.317 0.607-0.341 1.266-0.512 1.975-0.512zM109.674 229.078v0c1.951 0 3.48 0.587 4.588 1.762 1.108 1.175 1.663 3.048 1.663 5.62v0h-11.206l-0.033-0.632h7.382c0.044-1.086-0.022-2.09-0.2-3.013-0.177-0.918-0.459-1.654-0.844-2.208-0.39-0.554-0.896-0.831-1.517-0.831v0c-0.842 0-1.574 0.492-2.194 1.477-0.621 0.989-1.009 2.602-1.164 4.841v0l0.133 0.199c-0.044 0.288-0.071 0.599-0.08 0.932-0.013 0.333-0.02 0.665-0.02 0.997v0c0 1.53 0.222 2.793 0.665 3.791 0.443 0.998 1.02 1.729 1.729 2.194 0.709 0.466 1.441 0.698 2.195 0.699v0c0.776 0 1.569-0.195 2.381-0.586 0.807-0.386 1.521-1.155 2.141-2.307v0l0.632 0.266c-0.244 0.776-0.647 1.545-1.21 2.307-0.567 0.767-1.295 1.394-2.182 1.882-0.887 0.488-1.929 0.732-3.125 0.732v0c-1.507 0-2.837-0.333-3.991-0.998-1.153-0.665-2.051-1.658-2.693-2.979-0.643-1.317-0.964-2.928-0.964-4.835v0c0-2.017 0.339-3.713 1.017-5.087 0.674-1.374 1.609-2.423 2.807-3.146 1.197-0.718 2.56-1.077 4.09-1.077zM126.466 229.078v0c1.951 0 3.48 0.587 4.588 1.762 1.108 1.175 1.663 3.048 1.663 5.62v0h-11.206l-0.033-0.632h7.382c0.044-1.086-0.022-2.09-0.2-3.013-0.177-0.918-0.459-1.654-0.844-2.208-0.39-0.554-0.896-0.831-1.517-0.831v0c-0.842 0-1.574 0.492-2.194 1.477-0.621 0.989-1.009 2.602-1.164 4.841v0l0.133 0.199c-0.044 0.288-0.071 0.599-0.08 0.932-0.013 0.333-0.02 0.665-0.02 0.997v0c0 1.53 0.222 2.793 0.665 3.791 0.443 0.998 1.02 1.729 1.729 2.194 0.709 0.466 1.441 0.698 2.195 0.699v0c0.776 0 1.569-0.195 2.381-0.586 0.807-0.386 1.521-1.155 2.141-2.307v0l0.632 0.266c-0.244 0.776-0.647 1.545-1.21 2.307-0.567 0.767-1.295 1.394-2.182 1.882-0.887 0.488-1.929 0.732-3.125 0.732v0c-1.507 0-2.837-0.333-3.991-0.998-1.153-0.665-2.051-1.658-2.693-2.979-0.643-1.317-0.964-2.928-0.964-4.835v0c0-2.017 0.339-3.713 1.017-5.087 0.674-1.374 1.609-2.423 2.807-3.146 1.197-0.718 2.56-1.077 4.09-1.077zM143.158 223.857v-0.665c0.554 0.022 1.264 0.044 2.128 0.067 0.865 0.022 1.729 0.033 2.594 0.033v0c1.086 0 2.117-0.011 3.092-0.033 0.975-0.022 1.663-0.033 2.062-0.033v0c2.97 0 5.181 0.521 6.63 1.562 1.454 1.042 2.181 2.45 2.181 4.223v0c0 0.732-0.144 1.479-0.432 2.242-0.288 0.767-0.787 1.472-1.496 2.114-0.709 0.643-1.68 1.168-2.913 1.576-1.228 0.412-2.795 0.618-4.702 0.619v0h-3.192v-0.665h2.86c1.397 0 2.465-0.251 3.205-0.752 0.745-0.497 1.244-1.162 1.496-1.995 0.257-0.829 0.386-1.753 0.386-2.773v0c0-1.751-0.344-3.11-1.031-4.076-0.687-0.962-1.873-1.443-3.558-1.444v0c-0.909 0-1.503 0.188-1.782 0.566-0.275 0.377-0.412 1.142-0.412 2.294v0 16.493c0 0.798 0.067 1.397 0.199 1.795 0.133 0.399 0.384 0.665 0.752 0.798 0.364 0.133 0.9 0.222 1.609 0.266v0 0.665c-0.554-0.044-1.264-0.073-2.128-0.086-0.865-0.009-1.74-0.013-2.627-0.013v0c-0.998 0-1.929 0.004-2.793 0.013-0.865 0.013-1.574 0.042-2.128 0.086v0-0.665c0.732-0.044 1.279-0.133 1.643-0.266 0.368-0.133 0.612-0.399 0.731-0.798 0.124-0.399 0.186-0.998 0.186-1.795v0-16.493c0-0.82-0.062-1.425-0.186-1.815-0.12-0.386-0.364-0.65-0.731-0.792-0.364-0.146-0.911-0.231-1.643-0.253zM149.176 235.562l-0.066-0.565c1.042 0.044 1.913 0.093 2.614 0.146 0.696 0.058 1.292 0.109 1.788 0.153 0.501 0.044 0.951 0.1 1.351 0.166v0c1.84 0.177 3.197 0.603 4.069 1.277 0.878 0.678 1.461 1.705 1.75 3.079v0l0.764 3.425c0.2 0.909 0.415 1.556 0.645 1.942 0.235 0.39 0.574 0.574 1.018 0.552v0c0.31 0 0.576-0.084 0.798-0.253 0.222-0.164 0.443-0.39 0.665-0.678v0l0.465 0.399c-0.554 0.687-1.142 1.19-1.762 1.51-0.621 0.324-1.408 0.485-2.361 0.485v0c-1.064 0-1.962-0.251-2.693-0.751-0.732-0.497-1.23-1.443-1.496-2.84v0l-0.632-3.325c-0.177-0.931-0.384-1.751-0.619-2.461-0.231-0.709-0.545-1.264-0.944-1.663-0.399-0.399-0.986-0.599-1.762-0.598v0zM169.726 246.967v0c-1.463 0-2.527-0.377-3.192-1.13-0.665-0.754-0.998-1.707-0.998-2.86v0c0-0.931 0.222-1.702 0.665-2.314 0.443-0.607 1.013-1.1 1.709-1.477 0.701-0.377 1.439-0.705 2.215-0.984 0.776-0.275 1.507-0.541 2.195-0.798 0.687-0.253 1.252-0.541 1.695-0.864 0.443-0.319 0.665-0.734 0.665-1.244v0-2.427c0-0.709-0.106-1.292-0.319-1.749-0.208-0.452-0.519-0.796-0.931-1.031-0.408-0.231-0.922-0.346-1.543-0.346v0c-0.466 0-0.953 0.067-1.463 0.199-0.51 0.133-0.931 0.388-1.263 0.765v0c0.576 0.155 1.024 0.443 1.343 0.865 0.324 0.421 0.485 0.931 0.485 1.529v0c0 0.687-0.228 1.226-0.684 1.616-0.452 0.386-1.022 0.579-1.71 0.579v0c-0.732 0-1.286-0.233-1.662-0.698-0.377-0.466-0.565-1.009-0.565-1.63v0c0-0.621 0.155-1.137 0.465-1.549 0.31-0.408 0.743-0.778 1.297-1.111v0c0.554-0.377 1.264-0.676 2.128-0.898 0.865-0.222 1.807-0.333 2.826-0.332v0c0.975 0 1.84 0.104 2.594 0.312 0.754 0.213 1.397 0.585 1.929 1.118v0c0.532 0.51 0.876 1.142 1.03 1.895 0.155 0.754 0.233 1.674 0.233 2.76v0 9.111c0 0.554 0.06 0.947 0.18 1.177 0.124 0.235 0.341 0.352 0.651 0.352v0c0.266 0 0.499-0.067 0.699-0.199 0.2-0.133 0.399-0.277 0.598-0.432v0l0.366 0.565c-0.488 0.377-0.998 0.676-1.53 0.898-0.532 0.222-1.175 0.333-1.928 0.332v0c-1.264 0-2.106-0.284-2.527-0.851-0.421-0.563-0.643-1.21-0.665-1.942v0c-0.599 0.998-1.319 1.711-2.162 2.142-0.842 0.434-1.784 0.652-2.826 0.651zM171.954 245.105v0c0.488 0 0.964-0.133 1.43-0.399 0.466-0.266 0.898-0.709 1.296-1.33v0-6.717c-0.288 0.443-0.709 0.809-1.263 1.098-0.554 0.288-1.115 0.603-1.683 0.944-0.563 0.346-1.051 0.796-1.463 1.35-0.408 0.554-0.612 1.319-0.612 2.294v0c0 0.953 0.215 1.651 0.646 2.095 0.434 0.443 0.984 0.665 1.649 0.665zM194.033 229.078v0c0.865 0 1.592 0.122 2.181 0.366 0.585 0.244 1.044 0.554 1.377 0.931v0c0.399 0.421 0.676 0.98 0.831 1.676 0.155 0.701 0.233 1.583 0.233 2.646v0 8.945c0 0.931 0.162 1.563 0.485 1.895 0.319 0.333 0.867 0.499 1.643 0.499v0 0.698c-0.399-0.022-0.998-0.051-1.796-0.086-0.798-0.031-1.574-0.047-2.327-0.047v0c-0.798 0-1.569 0.016-2.315 0.047-0.74 0.035-1.299 0.064-1.675 0.086v0-0.698c0.643 0 1.104-0.166 1.383-0.499 0.275-0.333 0.412-0.964 0.412-1.895v0-10.075c0-0.599-0.044-1.137-0.133-1.616-0.089-0.474-0.277-0.851-0.565-1.131-0.288-0.275-0.732-0.412-1.33-0.412v0c-0.687 0-1.308 0.2-1.862 0.598-0.554 0.399-0.993 0.947-1.317 1.643-0.319 0.701-0.479 1.483-0.479 2.348v0 8.645c0 0.931 0.133 1.563 0.399 1.895 0.266 0.333 0.732 0.499 1.397 0.499v0 0.698c-0.377-0.022-0.927-0.051-1.65-0.086-0.718-0.031-1.454-0.047-2.207-0.047v0c-0.82 0-1.651 0.016-2.494 0.047-0.842 0.035-1.474 0.064-1.896 0.086v0-0.698c0.82 0 1.403-0.166 1.749-0.499 0.341-0.333 0.512-0.964 0.512-1.895v0-10.474c0-0.998-0.162-1.736-0.485-2.215-0.319-0.474-0.911-0.712-1.776-0.711v0-0.699c0.709 0.067 1.397 0.1 2.062 0.1v0c0.82 0 1.603-0.04 2.347-0.12 0.74-0.075 1.421-0.191 2.042-0.345v0 3.325c0.554-1.219 1.297-2.095 2.228-2.627 0.931-0.532 1.94-0.798 3.026-0.798zM204.042 229.078v0c0.865 0 1.589 0.122 2.174 0.366 0.59 0.244 1.051 0.554 1.384 0.931v0c0.399 0.421 0.676 0.98 0.831 1.676 0.155 0.701 0.233 1.583 0.233 2.646v0 8.945c0 0.931 0.173 1.563 0.518 1.895 0.341 0.333 0.922 0.499 1.743 0.499v0 0.698c-0.399-0.022-1.013-0.051-1.842-0.086-0.834-0.031-1.638-0.047-2.415-0.047v0c-0.798 0-1.567 0.016-2.307 0.047-0.745 0.035-1.306 0.064-1.683 0.086v0-0.698c0.643 0 1.102-0.166 1.377-0.499 0.279-0.333 0.419-0.964 0.419-1.895v0-10.075c0-0.599-0.051-1.137-0.153-1.616-0.098-0.474-0.301-0.851-0.612-1.131-0.31-0.275-0.776-0.412-1.397-0.412v0c-1.02 0-1.884 0.454-2.593 1.363-0.709 0.909-1.075 2.006-1.097 3.292v0l-0.167-2.394c0.599-1.374 1.397-2.317 2.394-2.826 0.998-0.51 2.062-0.765 3.193-0.765zM232.206 222.727v0c2.261 0 4.245 0.477 5.952 1.43 1.707 0.953 3.03 2.321 3.97 4.103 0.944 1.787 1.417 3.955 1.416 6.504v0c0 2.483-0.483 4.655-1.449 6.517-0.962 1.862-2.301 3.314-4.017 4.356-1.72 1.042-3.689 1.563-5.906 1.563v0c-2.261 0-4.245-0.477-5.952-1.43-1.707-0.953-3.03-2.328-3.97-4.123-0.944-1.796-1.417-3.957-1.416-6.484v0c0-2.483 0.488-4.655 1.463-6.517 0.975-1.862 2.317-3.314 4.023-4.356 1.707-1.042 3.669-1.563 5.886-1.563zM232.073 223.325v0c-1.308 0-2.445 0.499-3.412 1.497-0.962 0.998-1.709 2.372-2.241 4.123-0.532 1.751-0.798 3.78-0.798 6.085v0c0 2.35 0.299 4.394 0.898 6.132 0.599 1.742 1.408 3.084 2.427 4.023 1.02 0.944 2.139 1.417 3.358 1.416v0c1.308 0 2.445-0.499 3.412-1.496 0.962-0.998 1.709-2.379 2.241-4.143 0.532-1.76 0.798-3.782 0.798-6.065v0c0-2.372-0.299-4.422-0.898-6.152-0.599-1.729-1.403-3.066-2.414-4.01-1.006-0.94-2.13-1.41-3.371-1.41zM261.6 229.543v0 0.699c-0.421 0.089-0.814 0.321-1.177 0.698-0.368 0.377-0.718 1.042-1.051 1.995v0l-5.087 13.899c-0.266-0.022-0.532-0.033-0.798-0.033-0.266 0-0.543 0.011-0.832 0.033v0l-5.985-14.73c-0.333-0.842-0.676-1.363-1.031-1.563-0.355-0.2-0.654-0.299-0.898-0.299v0-0.699c0.621 0.044 1.264 0.082 1.929 0.113 0.665 0.035 1.397 0.053 2.195 0.054v0c0.687 0 1.414-0.018 2.181-0.054 0.763-0.031 1.476-0.069 2.141-0.113v0 0.699c-0.488 0-0.924 0.033-1.31 0.099-0.39 0.067-0.652 0.237-0.784 0.513-0.133 0.279-0.078 0.763 0.166 1.449v0l3.99 10.342-0.299 0.365 3.026-8.213c0.554-1.552 0.638-2.682 0.252-3.392-0.39-0.709-1.139-1.097-2.247-1.163v0-0.699c0.532 0.044 1.064 0.078 1.596 0.1 0.532 0.022 1.031 0.033 1.496 0.033v0c0.466 0 0.927-0.011 1.383-0.033 0.452-0.022 0.834-0.055 1.144-0.1zM270.445 229.078v0c1.951 0 3.48 0.587 4.589 1.762 1.108 1.175 1.663 3.048 1.662 5.62v0h-11.206l-0.033-0.632h7.382c0.044-1.086-0.022-2.09-0.199-3.013-0.177-0.918-0.459-1.654-0.845-2.208-0.39-0.554-0.896-0.831-1.516-0.831v0c-0.842 0-1.574 0.492-2.195 1.477-0.621 0.989-1.009 2.602-1.164 4.841v0l0.133 0.199c-0.044 0.288-0.071 0.599-0.079 0.932-0.013 0.333-0.02 0.665-0.02 0.997v0c0 1.53 0.222 2.793 0.665 3.791 0.443 0.998 1.02 1.729 1.729 2.194 0.709 0.466 1.441 0.698 2.194 0.699v0c0.776 0 1.569-0.195 2.381-0.586 0.807-0.386 1.521-1.155 2.141-2.307v0l0.632 0.266c-0.244 0.776-0.647 1.545-1.21 2.307-0.567 0.767-1.295 1.394-2.181 1.882-0.887 0.488-1.929 0.732-3.126 0.732v0c-1.507 0-2.837-0.333-3.99-0.998-1.153-0.665-2.051-1.658-2.694-2.979-0.643-1.317-0.964-2.928-0.964-4.835v0c0-2.017 0.339-3.713 1.018-5.087 0.674-1.374 1.609-2.423 2.806-3.146 1.197-0.718 2.56-1.077 4.09-1.077zM289.764 229.078v0c0.687 0 1.259 0.144 1.716 0.432 0.452 0.288 0.789 0.654 1.011 1.097 0.222 0.443 0.333 0.909 0.332 1.397v0c0 0.732-0.215 1.341-0.645 1.829-0.434 0.488-1.006 0.732-1.716 0.731v0c-0.665 0-1.208-0.177-1.629-0.532-0.421-0.355-0.632-0.842-0.632-1.463v0c0-0.554 0.14-1.02 0.419-1.396 0.275-0.377 0.59-0.676 0.945-0.898v0c-0.244-0.133-0.521-0.177-0.832-0.133v0c-0.709 0.067-1.33 0.37-1.862 0.911-0.532 0.545-0.947 1.188-1.243 1.929-0.301 0.745-0.452 1.45-0.453 2.114v0 8.214c0 1.086 0.277 1.811 0.832 2.174 0.554 0.368 1.363 0.552 2.427 0.552v0 0.698c-0.51-0.022-1.246-0.051-2.208-0.086-0.967-0.031-1.971-0.047-3.012-0.047v0c-0.865 0-1.722 0.016-2.574 0.047-0.856 0.035-1.494 0.064-1.915 0.086v0-0.698c0.82 0 1.403-0.166 1.749-0.499 0.341-0.333 0.512-0.964 0.512-1.895v0-10.474c0-0.998-0.16-1.736-0.479-2.215-0.324-0.474-0.918-0.712-1.782-0.711v0-0.699c0.709 0.067 1.397 0.1 2.061 0.1v0c0.82 0 1.603-0.04 2.348-0.12 0.74-0.075 1.421-0.191 2.041-0.345v0 3.458c0.266-0.621 0.616-1.197 1.051-1.729 0.43-0.532 0.951-0.971 1.563-1.317 0.607-0.341 1.266-0.512 1.975-0.512zM300.338 229.078v0c0.931 0 1.729 0.133 2.394 0.399 0.665 0.266 1.153 0.499 1.463 0.698v0c0.754 0.554 1.208 0.2 1.364-1.064v0h0.731c-0.044 0.643-0.078 1.401-0.1 2.275-0.022 0.878-0.033 2.048-0.033 3.511v0h-0.731c-0.111-0.82-0.321-1.618-0.632-2.394-0.31-0.776-0.765-1.425-1.363-1.949-0.599-0.519-1.385-0.778-2.361-0.778v0c-0.687 0-1.257 0.2-1.709 0.599-0.457 0.399-0.685 0.964-0.685 1.696v0c0 0.665 0.2 1.246 0.598 1.742 0.399 0.501 0.916 0.969 1.55 1.403 0.63 0.43 1.288 0.9 1.975 1.41v0c1.175 0.82 2.168 1.645 2.979 2.474 0.807 0.834 1.21 1.915 1.21 3.245v0c0 1.02-0.282 1.889-0.844 2.607-0.567 0.723-1.31 1.277-2.228 1.663-0.922 0.39-1.937 0.585-3.046 0.585v0c-0.599 0-1.142-0.055-1.629-0.166-0.488-0.111-0.92-0.255-1.297-0.433v0c-0.288-0.155-0.548-0.299-0.778-0.432-0.235-0.133-0.474-0.244-0.718-0.332v0c-0.222-0.111-0.415-0.067-0.579 0.133-0.168 0.2-0.297 0.532-0.386 0.997v0h-0.731c0.044-0.709 0.078-1.574 0.1-2.593 0.022-1.02 0.033-2.372 0.033-4.057v0h0.731c0.155 1.219 0.395 2.288 0.719 3.205 0.319 0.922 0.789 1.643 1.409 2.162 0.621 0.523 1.419 0.785 2.395 0.784v0c0.599 0 1.175-0.2 1.729-0.598 0.554-0.399 0.831-1.075 0.831-2.028v0c0-0.975-0.333-1.784-0.998-2.428-0.665-0.643-1.496-1.33-2.493-2.061v0c-0.754-0.554-1.456-1.097-2.109-1.63-0.656-0.532-1.188-1.131-1.596-1.795-0.412-0.665-0.618-1.452-0.618-2.361v0c0-0.998 0.255-1.824 0.765-2.481 0.51-0.652 1.182-1.151 2.015-1.496 0.829-0.341 1.72-0.512 2.673-0.512zM317.562 229.078v0c1.951 0 3.48 0.587 4.589 1.762 1.108 1.175 1.663 3.048 1.663 5.62v0h-11.206l-0.033-0.632h7.382c0.044-1.086-0.022-2.09-0.2-3.013-0.177-0.918-0.459-1.654-0.845-2.208-0.39-0.554-0.896-0.831-1.516-0.831v0c-0.842 0-1.574 0.492-2.194 1.477-0.621 0.989-1.009 2.602-1.164 4.841v0l0.133 0.199c-0.044 0.288-0.071 0.599-0.08 0.932-0.013 0.333-0.02 0.665-0.02 0.997v0c0 1.53 0.222 2.793 0.665 3.791 0.443 0.998 1.02 1.729 1.729 2.194 0.709 0.466 1.441 0.698 2.195 0.699v0c0.776 0 1.569-0.195 2.381-0.586 0.807-0.386 1.521-1.155 2.141-2.307v0l0.632 0.266c-0.244 0.776-0.647 1.545-1.211 2.307-0.567 0.767-1.295 1.394-2.181 1.882-0.887 0.488-1.929 0.732-3.126 0.732v0c-1.507 0-2.837-0.333-3.99-0.998-1.153-0.665-2.051-1.658-2.693-2.979-0.643-1.317-0.964-2.928-0.964-4.835v0c0-2.017 0.339-3.713 1.017-5.087 0.674-1.374 1.609-2.423 2.806-3.146 1.197-0.718 2.56-1.077 4.09-1.077zM330.364 246.967v0c-1.463 0-2.527-0.377-3.192-1.13-0.665-0.754-0.998-1.707-0.997-2.86v0c0-0.931 0.222-1.702 0.665-2.314 0.443-0.607 1.015-1.1 1.715-1.477 0.696-0.377 1.432-0.705 2.208-0.984 0.776-0.275 1.507-0.541 2.195-0.798 0.687-0.253 1.252-0.541 1.696-0.864 0.443-0.319 0.665-0.734 0.665-1.244v0-2.427c0-0.709-0.104-1.292-0.313-1.749-0.213-0.452-0.523-0.796-0.931-1.031-0.412-0.231-0.929-0.346-1.549-0.346v0c-0.466 0-0.953 0.067-1.463 0.199-0.51 0.133-0.931 0.388-1.264 0.765v0c0.576 0.155 1.026 0.443 1.35 0.865 0.319 0.421 0.479 0.931 0.479 1.529v0c0 0.687-0.226 1.226-0.678 1.616-0.457 0.386-1.029 0.579-1.716 0.579v0c-0.732 0-1.286-0.233-1.663-0.698-0.377-0.466-0.565-1.009-0.565-1.63v0c0-0.621 0.155-1.137 0.465-1.549 0.31-0.408 0.743-0.778 1.297-1.111v0c0.554-0.377 1.264-0.676 2.128-0.898 0.865-0.222 1.807-0.333 2.827-0.332v0c0.975 0 1.84 0.104 2.593 0.312 0.754 0.213 1.397 0.585 1.929 1.118v0c0.532 0.51 0.876 1.142 1.031 1.895 0.155 0.754 0.233 1.674 0.232 2.76v0 9.111c0 0.554 0.062 0.947 0.187 1.177 0.12 0.235 0.335 0.352 0.645 0.352v0c0.266 0 0.499-0.067 0.698-0.199 0.2-0.133 0.399-0.277 0.599-0.432v0l0.365 0.565c-0.488 0.377-0.998 0.676-1.529 0.898-0.532 0.222-1.175 0.333-1.929 0.332v0c-1.264 0-2.106-0.284-2.527-0.851-0.421-0.563-0.643-1.21-0.665-1.942v0c-0.599 0.998-1.319 1.711-2.161 2.142-0.842 0.434-1.784 0.652-2.827 0.651zM332.592 245.105v0c0.488 0 0.964-0.133 1.43-0.399 0.466-0.266 0.898-0.709 1.297-1.33v0-6.717c-0.288 0.443-0.709 0.809-1.264 1.098-0.554 0.288-1.113 0.603-1.676 0.944-0.567 0.346-1.055 0.796-1.463 1.35-0.412 0.554-0.618 1.319-0.618 2.294v0c0 0.953 0.217 1.651 0.652 2.095 0.43 0.443 0.978 0.665 1.642 0.665zM349.318 229.078v0c0.931 0 1.729 0.133 2.394 0.399 0.665 0.266 1.153 0.499 1.463 0.698v0c0.754 0.554 1.208 0.2 1.363-1.064v0h0.732c-0.044 0.643-0.078 1.401-0.1 2.275-0.022 0.878-0.033 2.048-0.033 3.511v0h-0.732c-0.111-0.82-0.321-1.618-0.632-2.394-0.31-0.776-0.765-1.425-1.363-1.949-0.599-0.519-1.385-0.778-2.361-0.778v0c-0.687 0-1.257 0.2-1.709 0.599-0.457 0.399-0.685 0.964-0.685 1.696v0c0 0.665 0.2 1.246 0.599 1.742 0.399 0.501 0.916 0.969 1.549 1.403 0.63 0.43 1.288 0.9 1.975 1.41v0c1.175 0.82 2.168 1.645 2.98 2.474 0.807 0.834 1.21 1.915 1.21 3.245v0c0 1.02-0.282 1.889-0.845 2.607-0.567 0.723-1.31 1.277-2.227 1.663-0.922 0.39-1.937 0.585-3.046 0.585v0c-0.599 0-1.142-0.055-1.63-0.166-0.488-0.111-0.92-0.255-1.296-0.433v0c-0.288-0.155-0.548-0.299-0.779-0.432-0.235-0.133-0.474-0.244-0.718-0.332v0c-0.222-0.111-0.415-0.067-0.578 0.133-0.168 0.2-0.297 0.532-0.386 0.997v0h-0.732c0.044-0.709 0.078-1.574 0.1-2.593 0.022-1.02 0.033-2.372 0.033-4.057v0h0.732c0.155 1.219 0.395 2.288 0.718 3.205 0.319 0.922 0.789 1.643 1.41 2.162 0.621 0.523 1.419 0.785 2.394 0.784v0c0.599 0 1.175-0.2 1.729-0.598 0.554-0.399 0.831-1.075 0.832-2.028v0c0-0.975-0.333-1.784-0.998-2.428-0.665-0.643-1.496-1.33-2.494-2.061v0c-0.754-0.554-1.456-1.097-2.108-1.63-0.656-0.532-1.188-1.131-1.596-1.795-0.412-0.665-0.618-1.452-0.619-2.361v0c0-0.998 0.255-1.824 0.765-2.481 0.51-0.652 1.182-1.151 2.015-1.496 0.829-0.341 1.72-0.512 2.674-0.512z"
                                        fill="#000000" fill-rule="nonzero" stroke="none" stroke-width="1"
                                        stroke-linecap="butt" stroke-linejoin="miter" stroke-miterlimit="10"
                                        stroke-dasharray="" stroke-dashoffset="0" font-family="none" font-weight="none"
                                        font-size="none" text-anchor="none" style="mix-blend-mode: normal"
                                        data-fill-palette-color="secondary"></path>
                                </g>
                            </g>
                            <g transform="matrix(1,0,0,1,29.33176499999999,68.99679310248982)"><svg
                                    viewBox="0 0 316.416 103.52303379502042" height="103.52303379502042"
                                    width="316.416">
                                    <g><svg viewBox="0 0 512.8816203406549 167.80144276955164"
                                            height="103.52303379502042" width="316.416">
                                            <g transform="matrix(1,0,0,1,0,23.191082177267994)"><svg
                                                    viewBox="0 0 316.416 121.41927841501565" height="121.41927841501565"
                                                    width="316.416">
                                                    <g id="textblocktransform"><svg
                                                            viewBox="0 0 316.416 121.41927841501565"
                                                            height="121.41927841501565" width="316.416" id="textblock">
                                                            <g><svg viewBox="0 0 316.416 121.41927841501565"
                                                                    height="121.41927841501565" width="316.416">
                                                                    <g transform="matrix(1,0,0,1,0,0)"><svg
                                                                            width="316.416"
                                                                            viewBox="2.85 -36.1 95.9 36.800000000000004"
                                                                            height="121.41927841501565"
                                                                            data-palette-color="#61777f">
                                                                            <path
                                                                                d="M13.7-36L13.7-36Q16.5-36 18-35.4 19.5-34.8 20.6-34.1L20.6-34.1Q21.2-33.75 21.58-33.58 21.95-33.4 22.3-33.4L22.3-33.4Q23.1-33.4 23.4-35.6L23.4-35.6 24.55-35.6Q24.5-34.65 24.43-33.4 24.35-32.15 24.33-30.08 24.3-28 24.3-24.6L24.3-24.6 23.15-24.6Q23-27.15 22.03-29.5 21.05-31.85 19.28-33.38 17.5-34.9 14.75-34.9L14.75-34.9Q12.3-34.9 10.68-33.45 9.05-32 9.05-29.55L9.05-29.55Q9.05-27.45 10.1-26.03 11.15-24.6 13.08-23.28 15-21.95 17.65-20.25L17.65-20.25Q20.1-18.65 22.05-17.07 24-15.5 25.13-13.6 26.25-11.7 26.25-8.95L26.25-8.95Q26.25-5.7 24.65-3.55 23.05-1.4 20.35-0.35 17.65 0.7 14.45 0.7L14.45 0.7Q11.5 0.7 9.78 0.1 8.05-0.5 6.8-1.15L6.8-1.15Q5.7-1.85 5.1-1.85L5.1-1.85Q4.3-1.85 4 0.35L4 0.35 2.85 0.35Q2.95-0.8 2.98-2.35 3-3.9 3.03-6.38 3.05-8.85 3.05-12.65L3.05-12.65 4.2-12.65Q4.4-9.45 5.33-6.68 6.25-3.9 8.18-2.2 10.1-0.5 13.3-0.5L13.3-0.5Q15.9-0.5 17.75-1.98 19.6-3.45 19.6-6.45L19.6-6.45Q19.6-9.5 17.5-11.55 15.4-13.6 12-15.7L12-15.7Q9.65-17.2 7.6-18.75 5.55-20.3 4.33-22.28 3.1-24.25 3.1-27.05L3.1-27.05Q3.1-30.15 4.6-32.13 6.1-34.1 8.53-35.05 10.95-36 13.7-36ZM30.25-34.4L30.25-35.4Q31.5-35.35 33.45-35.3 35.4-35.25 37.35-35.25L37.35-35.25Q39.8-35.25 42-35.3 44.2-35.35 45.1-35.35L45.1-35.35Q51.8-35.35 55.07-33 58.35-30.65 58.35-26.65L58.35-26.65Q58.35-25 57.7-23.28 57.05-21.55 55.45-20.1 53.85-18.65 51.07-17.73 48.3-16.8 44-16.8L44-16.8 39.2-16.8 39.2-17.8 43.5-17.8Q46.65-17.8 48.32-18.93 50-20.05 50.57-21.93 51.15-23.8 51.15-26.1L51.15-26.1Q51.15-30.05 49.6-32.23 48.05-34.4 44.25-34.4L44.25-34.4Q42.2-34.4 41.57-33.55 40.95-32.7 40.95-30.1L40.95-30.1 40.95-5.3Q40.95-3.5 41.25-2.6 41.55-1.7 42.37-1.4 43.2-1.1 44.8-1L44.8-1 44.8 0Q43.55-0.1 41.6-0.13 39.65-0.15 37.65-0.15L37.65-0.15Q35.4-0.15 33.45-0.13 31.5-0.1 30.25 0L30.25 0 30.25-1Q31.9-1.1 32.72-1.4 33.55-1.7 33.82-2.6 34.1-3.5 34.1-5.3L34.1-5.3 34.1-30.1Q34.1-31.95 33.82-32.83 33.55-33.7 32.72-34.02 31.9-34.35 30.25-34.4L30.25-34.4ZM39.3-16.8L39.2-17.65Q41.55-17.55 43.12-17.43 44.7-17.3 45.82-17.2 46.95-17.1 47.85-16.95L47.85-16.95Q52-16.55 53.97-15.03 55.95-13.5 56.6-10.4L56.6-10.4 57.75-5.25Q58.2-3.2 58.72-2.33 59.25-1.45 60.25-1.5L60.25-1.5Q60.95-1.5 61.45-1.88 61.95-2.25 62.45-2.9L62.45-2.9 63.15-2.3Q61.9-0.75 60.5-0.03 59.1 0.7 56.95 0.7L56.95 0.7Q54.55 0.7 52.9-0.43 51.25-1.55 50.65-4.7L50.65-4.7 49.7-9.7Q49.3-11.8 48.77-13.4 48.25-15 47.35-15.9 46.45-16.8 44.7-16.8L44.7-16.8 39.3-16.8ZM81.7-36.1L81.7-36.1Q86.8-36.1 90.65-33.95 94.5-31.8 96.62-27.78 98.75-23.75 98.75-18L98.75-18Q98.75-12.4 96.57-8.2 94.4-4 90.52-1.65 86.65 0.7 81.65 0.7L81.65 0.7Q76.55 0.7 72.7-1.45 68.84-3.6 66.72-7.65 64.59-11.7 64.59-17.4L64.59-17.4Q64.59-23 66.8-27.2 69-31.4 72.84-33.75 76.7-36.1 81.7-36.1ZM81.5-35.2L81.5-35.2Q78.55-35.2 76.37-32.95 74.2-30.7 73-26.75 71.8-22.8 71.8-17.6L71.8-17.6Q71.8-12.3 73.15-8.38 74.5-4.45 76.8-2.33 79.09-0.2 81.84-0.2L81.84-0.2Q84.8-0.2 86.97-2.45 89.15-4.7 90.34-8.68 91.55-12.65 91.55-17.8L91.55-17.8Q91.55-23.15 90.2-27.05 88.84-30.95 86.57-33.08 84.3-35.2 81.5-35.2Z"
                                                                                opacity="1"
                                                                                transform="matrix(1,0,0,1,0,0)"
                                                                                fill="#61777f" class="undefined-text-0"
                                                                                data-fill-palette-color="primary"
                                                                                id="text-0"></path>
                                                                        </svg></g>
                                                                </svg></g>
                                                        </svg></g>
                                                </svg></g>
                                            <g transform="matrix(1,0,0,1,345.08017757110326,0)"><svg
                                                    viewBox="0 0 167.80144276955164 167.80144276955164"
                                                    height="167.80144276955164" width="167.80144276955164">
                                                    <g data-palette-color="#c8c8c8">
                                                        <rect width="45.86572769034412" height="167.80144276955164"
                                                            fill="#c8c8c8" stroke="transparent"
                                                            data-fill-palette-color="accent" x="0" fill-opacity="1">
                                                        </rect>
                                                        <rect width="45.86572769034412" height="167.80144276955164"
                                                            fill="#c8c8c8" stroke="transparent"
                                                            data-fill-palette-color="accent" x="55.93381425651722"
                                                            fill-opacity="0.75"></rect>
                                                        <rect width="45.86572769034412" height="167.80144276955164"
                                                            fill="#c8c8c8" stroke="transparent"
                                                            data-fill-palette-color="accent" x="111.86762851303445"
                                                            fill-opacity="0.5"></rect>
                                                    </g>
                                                </svg></g>
                                        </svg></g>
                                </svg></g>
                        </svg></g>
                    <defs></defs>
                </svg>
                <rect width="375.07953" height="241.51662000000005" fill="none" stroke="none" visibility="hidden">
                </rect>
            </g>
        </svg></g>
</svg>